<svg viewBox="0 0 17.1484 17.6562" xmlns="http://www.w3.org/2000/svg" xmlns:xlink="http://www.w3.org/1999/xlink" width="17.148438" height="17.656250" fill="none" customFrame="#000000">
	<path id="路径 25935" d="M7.60764 14.7153C3.64767 14.7153 0.5 11.5676 0.5 7.60764C0.5 3.64767 3.64767 0.5 7.60764 0.5C11.5676 0.5 14.7153 3.64767 14.7153 7.60764C14.7153 11.5676 11.5676 14.7153 7.60764 14.7153ZM7.60764 12.6845C10.4507 12.6845 12.6845 10.4507 12.6845 7.60765C12.6845 4.76462 10.4507 2.53079 7.60764 2.53079C4.76459 2.53079 2.53076 4.76462 2.53076 7.60765C2.53076 10.4507 4.76459 12.6845 7.60764 12.6845ZM13.5984 12.6845L16.4414 15.5276L15.0199 16.9491L12.1768 14.106L13.5984 12.6845Z" fill="rgb(68,68,68)" fill-rule="nonzero" />
	<path id="路径 25935" d="M0.5 7.60764C0.5 3.64767 3.64767 0.5 7.60764 0.5C11.5676 0.5 14.7153 3.64767 14.7153 7.60764C14.7153 11.5676 11.5676 14.7153 7.60764 14.7153C3.64767 14.7153 0.5 11.5676 0.5 7.60764ZM12.6845 7.60765C12.6845 4.76462 10.4507 2.53079 7.60764 2.53079C4.76459 2.53079 2.53076 4.76462 2.53076 7.60765C2.53076 10.4507 4.76459 12.6845 7.60764 12.6845C10.4507 12.6845 12.6845 10.4507 12.6845 7.60765ZM16.4414 15.5276L15.0199 16.9491L12.1768 14.106L13.5984 12.6845L16.4414 15.5276Z" fill-rule="nonzero" stroke="rgb(112,112,112)" stroke-opacity="0" stroke-width="1.000000" />
</svg>
