<svg viewBox="0 0 8 4" xmlns="http://www.w3.org/2000/svg" xmlns:xlink="http://www.w3.org/1999/xlink" width="8.000000" height="4.000000" fill="none" customFrame="#000000">
	<path id="多边形 3" d="M4.42426 0.424264L6.97573 2.97574C7.35371 3.35371 7.08601 4 6.55147 4L1.44853 4C0.913985 4 0.646285 3.35371 1.02426 2.97574L3.57574 0.424264C3.81005 0.18995 4.18995 0.18995 4.42426 0.424264Z" fill="rgb(51,51,51)" fill-rule="evenodd" transform="matrix(-1,0,0,-1,8,4)" />
	<path id="多边形 3" d="M4.42426 0.424264L6.97573 2.97574C7.09796 3.09796 7.15267 3.24825 7.15267 3.39567C7.15267 3.70412 6.91315 4 6.55147 4L1.44853 4C1.08684 4 0.847325 3.70412 0.847325 3.39567C0.847325 3.24825 0.902034 3.09797 1.02426 2.97574L3.57574 0.424264C3.81005 0.18995 4.18995 0.18995 4.42426 0.424264ZM4 1.41421L2.41421 3L5.58579 3L4 1.41421Z" fill="rgb(112,112,112)" fill-opacity="0" fill-rule="evenodd" transform="matrix(-1,0,0,-1,8,4)" />
</svg>
