<svg viewBox="0 0 19.345 16.4941" xmlns="http://www.w3.org/2000/svg" xmlns:xlink="http://www.w3.org/1999/xlink" width="19.344971" height="16.494141" fill="none" customFrame="#000000">
	<path id="路径 25904" d="M11.9631 8.24729L11.9438 10.0799L18.8163 10.0799L18.8103 12.3707L11.9378 12.3707L11.9184 14.2033L19.2487 14.2033L19.2428 16.4937L0 16.4937L0.00598145 14.2033L7.33676 14.2033L7.3561 12.3707L0.484055 12.3707L0.490036 10.0799L7.36255 10.0799L7.38143 8.24729L11.9631 8.24729ZM14.2539 8.24729L14.0895 7.37867L0.978241 7.78857L0.984222 5.49773L3.15854 2.29084L0.0958023 2.29084L0.102242 0L19.345 0L19.3386 2.29084L8.65627 2.29084L6.60447 5.32871L13.6888 5.11224L13.3609 3.2069L17.9426 3.2069L18.8356 8.24729L14.2539 8.24729Z" fill="rgb(61,64,80)" fill-rule="nonzero" />
</svg>
