<svg xmlns="http://www.w3.org/2000/svg" xmlns:xlink="http://www.w3.org/1999/xlink" width="357" height="149" viewBox="0 0 357 149" fill="none"><g filter="url(#filter_151_783)"><circle  cx="207" cy="130" r="10"    fill="#34C7A9" ></circle><path fill-rule="evenodd"  fill="rgba(255, 255, 255, 1)"  d="M207 140C212.523 140 217 135.523 217 130C217 124.477 212.523 120 207 120C201.477 120 197 124.477 197 130C197 135.523 201.477 140 207 140ZM207 122C211.418 122 215 125.582 215 130C215 134.418 211.418 138 207 138C202.582 138 199 134.418 199 130C199 125.582 202.582 122 207 122Z"></path></g><path d="M209.261 128.138L204.74 128.138L204.74 95.48L209.261 95.48L209.261 128.138Z"   fill="#343448" ></path><path  transform="translate(20, 0)"   fill="#34C7A9"  d="M0 53L0 17C0 7.61116 7.61116 0 17 0L87 0C96.3888 0 104 7.61116 104 17L104 53C104 53 104 53 104 53L0 53C0 53 0 53 0 53Z"></path><g ><text transform="translate(42, 6)"><tspan x="0" y="21.7" font-size="20" line-height="29"  fill="#FFFFFF"  font-family="" letter-spacing="0" >卸货港</tspan></text></g><g filter="url(#filter_151_787)"><path  transform="translate(20, 40)"   fill="#FFFFFF"  d="M0 53L0 13C0 5.8203 5.8203 0 13 0L304 0C311.18 0 317 5.8203 317 13L317 53C317 60.1797 311.18 66 304 66L13 66C5.8203 66 0 60.1797 0 53Z"></path><g ><text transform="translate(40, 56)"><tspan x="0" y="25.64" font-size="24" line-height="34"  fill="#333333"  font-family="" letter-spacing="0" >福建江阴国际集装箱码头</tspan></text></g></g><defs><filter id="filter_151_783" x="191" y="117" width="32" height="32" filterUnits="userSpaceOnUse" color-interpolation-filters="sRGB"><feFlood flood-opacity="0" result="feFloodId_151_783"/><feColorMatrix in="SourceAlpha" type="matrix" values="0 0 0 0 0 0 0 0 0 0 0 0 0 0 0 0 0 0 127 0" result="hardAlpha_151_783"/><feOffset dx="0" dy="3"/><feGaussianBlur stdDeviation="3"/><feComposite in2="hardAlpha_151_783" operator="out"/><feColorMatrix type="matrix" values="0 0 0 0 0 0 0 0 0 0 0 0 0 0 0 0 0 0 0.16 0"/><feBlend mode="normal" in2="feFloodId_151_783" result="dropShadow_1_151_783"/><feBlend mode="normal" in="SourceGraphic" in2="dropShadow_1_151_783" result="shape_151_783"/></filter><filter id="filter_151_787" x="0" y="23" width="357" height="106" filterUnits="userSpaceOnUse" color-interpolation-filters="sRGB"><feFlood flood-opacity="0" result="feFloodId_151_787"/><feColorMatrix in="SourceAlpha" type="matrix" values="0 0 0 0 0 0 0 0 0 0 0 0 0 0 0 0 0 0 127 0" result="hardAlpha_151_787"/><feOffset dx="0" dy="3"/><feGaussianBlur stdDeviation="10"/><feComposite in2="hardAlpha_151_787" operator="out"/><feColorMatrix type="matrix" values="0 0 0 0 0 0 0 0 0 0 0 0 0 0 0 0 0 0 0.2 0"/><feBlend mode="normal" in2="feFloodId_151_787" result="dropShadow_1_151_787"/><feBlend mode="normal" in="SourceGraphic" in2="dropShadow_1_151_787" result="shape_151_787"/></filter></defs></svg>