<svg xmlns="http://www.w3.org/2000/svg" xmlns:xlink="http://www.w3.org/1999/xlink" width="146" height="43" viewBox="0 0 146 43" fill="none"><rect x="67" y="37" width="11" height="6"   fill="#CCCCCC" fill-opacity="0"></rect><g mask="url(#mask-151_778)"><path     fill="#000000" fill-opacity="0.68" d="M74.27 40.65L78.81 34.14C79.7349 32.8142 78.7866 31 77.17 31L68.09 31C66.4734 31 65.5251 32.8142 66.45 34.14L70.99 40.65C71.7859 41.7909 73.4741 41.7909 74.27 40.65"></path></g><path     fill="#000000" fill-opacity="0.68" d="M0 33L0 4C0 1.79086 1.79086 0 4 0L142 0C144.209 0 146 1.79086 146 4L146 33C146 35.2091 144.209 37 142 37L4 37C1.79086 37 0 35.2091 0 33Z"></path><g ><text transform="translate(15, 4)"><tspan x="0" y="21.7" font-size="20" line-height="29"  fill="#FFFFFF"  font-family="PingFang SC Regular; 10.11d9e1; 2015-05-20" letter-spacing="0" >航线420海里</tspan></text></g><defs><mask id="mask-151_778" style="mask-type:alpha" maskUnits="userSpaceOnUse"><rect x="67" y="37" width="11" height="6"   fill="#CCCCCC" fill-opacity="0"></rect></mask></defs></svg>